<svg width="40" height="32" viewBox="0 0 40 32" fill="none" xmlns="http://www.w3.org/2000/svg">
<path d="M3.3876 12.6812C7.7001 8.54375 13.5501 6 20.0001 6C26.4501 6 32.3001 8.54375 36.6126 12.6812C37.4126 13.4437 38.6751 13.4187 39.4376 12.625C40.2001 11.8313 40.1751 10.5625 39.3814 9.8C34.3563 4.96875 27.5251 2 20.0001 2C12.4751 2 5.64385 4.96875 0.612605 9.79375C-0.181145 10.5625 -0.206145 11.825 0.556355 12.625C1.31885 13.425 2.5876 13.45 3.38135 12.6812H3.3876ZM20.0001 16C23.5501 16 26.7876 17.3188 29.2626 19.5C30.0939 20.2313 31.3564 20.15 32.0876 19.325C32.8189 18.5 32.7376 17.2312 31.9126 16.5C28.7376 13.7 24.5626 12 20.0001 12C15.4376 12 11.2626 13.7 8.09385 16.5C7.2626 17.2312 7.1876 18.4938 7.91885 19.325C8.6501 20.1562 9.9126 20.2313 10.7439 19.5C13.2126 17.3188 16.4501 16 20.0064 16H20.0001ZM24.0001 26C24.0001 24.9391 23.5787 23.9217 22.8285 23.1716C22.0784 22.4214 21.061 22 20.0001 22C18.9392 22 17.9218 22.4214 17.1717 23.1716C16.4215 23.9217 16.0001 24.9391 16.0001 26C16.0001 27.0609 16.4215 28.0783 17.1717 28.8284C17.9218 29.5786 18.9392 30 20.0001 30C21.061 30 22.0784 29.5786 22.8285 28.8284C23.5787 28.0783 24.0001 27.0609 24.0001 26Z" fill="#EA4335"/>
<path d="M31 26.751L6 2.75098" stroke="#EA4335" stroke-width="3" stroke-linecap="round"/>
</svg>
