<svg width="10" height="12" viewBox="0 0 10 12" fill="none" xmlns="http://www.w3.org/2000/svg">
<path d="M3.46444 0.619944L3.46445 0.619949L3.46589 0.61705C3.50119 0.545792 3.57425 0.5 3.65625 0.5H6.34375C6.42575 0.5 6.49881 0.545792 6.53411 0.61705L6.5341 0.617055L6.53556 0.619945L6.69627 0.939141L6.83481 1.21429H7.14286H9.28571C9.40466 1.21429 9.5 1.30962 9.5 1.42857C9.5 1.54752 9.40466 1.64286 9.28571 1.64286H0.714286C0.595339 1.64286 0.5 1.54752 0.5 1.42857C0.5 1.30962 0.595339 1.21429 0.714286 1.21429H2.85714H3.1652L3.30373 0.939141L3.46444 0.619944ZM1.6865 10.3925L1.24653 3.35714H8.75347L8.3135 10.3925C8.3135 10.3926 8.31349 10.3926 8.31349 10.3926C8.29439 10.6941 8.04399 10.9286 7.7433 10.9286H2.2567C1.95606 10.9286 1.70568 10.6942 1.68652 10.3927C1.68651 10.3927 1.68651 10.3926 1.6865 10.3925Z" stroke="black"/>
</svg>
