<svg width="176" height="42" viewBox="0 0 176 42" fill="none" xmlns="http://www.w3.org/2000/svg">
<g clip-path="url(#clip0_1612_1916)">
<path d="M21.0619 5.10694C21.1314 5.12395 21.2008 5.14096 21.2724 5.15849C25.2144 6.14446 28.711 8.44842 31.8318 10.9717C32.0317 11.1318 32.2316 11.2917 32.4316 11.4516C32.5871 11.576 32.7426 11.7004 32.8981 11.8248C32.5459 12.0596 32.419 12.0688 32.0072 12.0822C31.8914 12.0864 31.7756 12.0906 31.6563 12.0949C31.4693 12.0997 31.4693 12.0997 31.2787 12.1047C31.0865 12.1101 31.0865 12.1101 30.8904 12.1156C30.6243 12.1225 30.3583 12.129 30.0922 12.1349C29.7227 12.1441 29.3537 12.1583 28.9844 12.1734C27.7809 12.2123 26.8892 12.2006 25.8604 11.5049C24.1199 10.551 22.4643 10.1861 20.4888 10.1986C20.3596 10.1978 20.2304 10.197 20.0972 10.1961C18.705 10.1991 17.4293 10.395 16.1102 10.8384C15.9944 10.8767 15.8785 10.9149 15.7592 10.9543C14.3815 11.4142 13.0967 11.9453 11.8214 12.6418C11.6988 12.7085 11.6988 12.7085 11.5737 12.7766C11.5012 12.8166 11.4288 12.8567 11.3541 12.8979C11.1436 12.9985 10.9463 13.0562 10.7186 13.1044C10.7186 13.1748 10.7186 13.2451 10.7186 13.3176C10.6574 13.3478 10.5962 13.3779 10.5332 13.4089C8.27473 14.5775 6.22342 16.2293 4.32061 17.9028C4.23979 17.9729 4.15897 18.0431 4.07569 18.1153C3.87194 18.2921 3.66957 18.4704 3.46755 18.6493C3.37615 18.7295 3.28474 18.8098 3.19056 18.8925C3.09503 18.9772 2.9995 19.0619 2.90107 19.1491C2.81351 19.2265 2.72595 19.3039 2.63574 19.3836C2.19463 19.7897 2.19463 19.7897 2.06592 20.3533C2.0776 20.4662 2.08929 20.579 2.10132 20.6953C2.11163 20.809 2.12194 20.9226 2.13256 21.0398C2.15085 21.1306 2.16913 21.2215 2.18796 21.3151C2.25834 21.3503 2.32872 21.3855 2.40123 21.4217C2.50411 21.6 2.50411 21.6 2.60783 21.8216C2.73203 22.0811 2.85684 22.3222 3.0077 22.568C3.13987 22.7946 3.20682 22.9782 3.25429 23.2345C3.32467 23.2345 3.39504 23.2345 3.46755 23.2345C3.51127 23.3179 3.55498 23.4013 3.60001 23.4873C3.65747 23.5952 3.71492 23.7031 3.77412 23.8143C3.83103 23.9219 3.88794 24.0295 3.94657 24.1404C4.08139 24.4182 4.08139 24.4182 4.32061 24.5141C4.42983 24.6902 4.5361 24.8682 4.64051 25.0472C5.25803 25.9111 6.00177 26.6548 6.75286 27.4006C6.9476 27.5942 7.14116 27.7889 7.33465 27.9838C7.45982 28.1088 7.58505 28.2338 7.71036 28.3587C7.76736 28.4161 7.82436 28.4735 7.88308 28.5327C8.31916 28.9634 8.78421 29.2902 9.31901 29.5924C9.39379 29.6408 9.46857 29.6892 9.54561 29.7391C9.54561 29.8094 9.54561 29.8798 9.54561 29.9523C9.62341 29.9808 9.70121 30.0092 9.78137 30.0385C10.0757 30.1643 10.3089 30.3109 10.5719 30.4922C13.8591 32.6142 18.0632 33.466 21.9014 32.6688C22.3976 32.558 22.8868 32.4244 23.3766 32.2887C24.2011 32.0608 25.0175 31.9465 25.8671 31.8584C25.9566 31.849 26.0461 31.8397 26.1383 31.83C26.7238 31.7732 27.2982 31.7568 27.8864 31.7651C27.8518 31.8243 27.8172 31.8835 27.7815 31.9446C27.6576 32.2271 27.6456 32.4246 27.6448 32.7323C27.6445 32.8367 27.6443 32.9412 27.644 33.0488C27.6448 33.1574 27.6456 33.266 27.6465 33.3779C27.6457 33.484 27.6448 33.5901 27.644 33.6995C27.646 34.4611 27.7428 35.1639 27.9361 35.8998C28.0038 36.1817 28.0554 36.4648 28.1063 36.7502C28.1252 36.8552 28.144 36.9602 28.1634 37.0684C28.1776 37.1481 28.1917 37.2278 28.2063 37.31C24.7867 37.3173 21.3671 37.3229 17.9474 37.3263C17.5441 37.3267 17.1407 37.3271 16.7373 37.3275C16.657 37.3276 16.5767 37.3277 16.494 37.3278C15.1923 37.3292 13.8905 37.3317 12.5888 37.3347C11.254 37.3376 9.91912 37.3394 8.58426 37.3401C7.76003 37.3405 6.93582 37.3419 6.11159 37.3445C5.48045 37.3464 4.84932 37.3466 4.21818 37.3462C3.95862 37.3462 3.69907 37.3469 3.43951 37.3481C3.08655 37.3497 2.73365 37.3493 2.38069 37.3484C2.27676 37.3494 2.17282 37.3503 2.06574 37.3513C1.9247 37.3503 1.9247 37.3503 1.78081 37.3493C1.65848 37.3495 1.65848 37.3495 1.53369 37.3497C1.46809 37.3366 1.40249 37.3235 1.3349 37.31C1.02068 36.8386 1.02535 36.3671 0.968354 35.8105C0.948612 35.6193 0.948612 35.6193 0.928471 35.4242C0.597485 32.0832 0.364723 28.7211 0.588475 25.3671C0.596379 25.2367 0.604283 25.1063 0.612426 24.9719C0.687334 23.7399 0.779082 22.5093 0.908373 21.2818C0.915925 21.2079 0.923476 21.1341 0.931256 21.058C0.984455 20.5921 1.09408 20.1641 1.22827 19.7156C1.30311 19.4143 1.37225 19.1118 1.44154 18.8092C1.70402 17.6629 2.01451 16.5453 2.50578 15.4745C2.57478 15.3238 2.64193 15.1722 2.70655 15.0196C3.4823 13.1947 4.54388 11.531 5.81347 10.012C5.86007 9.95238 5.90667 9.89273 5.95468 9.83126C6.2571 9.44745 6.60003 9.13655 6.97102 8.822C7.12086 8.69345 7.26793 8.5616 7.41171 8.4263C9.54896 6.4259 12.3183 5.19831 15.1971 4.78704C15.3017 4.77179 15.4063 4.75653 15.5141 4.74081C17.326 4.54328 19.2954 4.66252 21.0619 5.10694Z" fill="black"/>
<path d="M32.0452 12.9978C34.7209 12.9407 36.6012 13.7227 38.8696 15.1304C38.9448 15.1768 39.02 15.2232 39.0974 15.271C40.9485 16.4156 40.9485 16.4156 41.5996 16.9511C41.8264 17.1332 42.0567 17.3064 42.2911 17.4784C42.4086 17.565 42.4086 17.565 42.5286 17.6534C42.6867 17.7695 42.8451 17.8852 43.0038 18.0004C43.0758 18.0536 43.1478 18.1067 43.222 18.1616C43.2874 18.2093 43.3527 18.257 43.4201 18.3062C43.4668 18.3491 43.5134 18.3919 43.5615 18.4361C43.5615 18.5064 43.5615 18.5768 43.5615 18.6493C43.6769 18.6856 43.6769 18.6856 43.7947 18.7226C44.1482 18.8876 44.3612 19.1204 44.6278 19.3957C44.754 19.5212 44.8806 19.6465 45.0073 19.7715C45.1451 19.9084 45.283 20.0453 45.4209 20.1822C45.4894 20.2498 45.5579 20.3174 45.6285 20.3871C46.0647 20.821 46.4742 21.2683 46.8671 21.7417C46.9459 21.8355 47.0246 21.9294 47.1058 22.0262C47.981 23.0893 48.806 24.1332 49.4263 25.3672C49.4921 25.496 49.5579 25.6249 49.6237 25.7537C49.8976 26.2936 50.161 26.8308 50.386 27.3932C50.4212 27.4284 50.4563 27.4636 50.4926 27.4998C50.5003 27.6618 50.5015 27.8242 50.4993 27.9863C50.4983 28.0744 50.4973 28.1625 50.4963 28.2533C50.4945 28.3554 50.4945 28.3554 50.4926 28.4595C49.7445 28.4278 49.0484 28.2994 48.3246 28.1099C47.7104 27.9491 47.0934 27.8053 46.4739 27.6664C45.6691 27.4848 44.8646 27.3018 44.0613 27.1133C43.9717 27.0926 43.882 27.0719 43.7897 27.0506C42.2048 26.6763 42.2048 26.6763 41.8554 26.3269C41.8102 26.1208 41.8102 26.1208 41.7833 25.8687C41.7724 25.776 41.7614 25.6834 41.7502 25.5879C41.733 25.4391 41.733 25.4391 41.7154 25.2872C41.4251 23.1022 40.4286 21.1363 39.0829 19.3957C39.0406 19.3401 38.9983 19.2844 38.9548 19.227C38.059 18.0484 37.1414 16.9285 35.9718 16.0085C35.6657 15.7663 35.3725 15.5126 35.0775 15.2571C34.1563 14.486 33.1302 13.7337 32.0452 13.2111C32.0452 13.1407 32.0452 13.0703 32.0452 12.9978Z" fill="#E84335"/>
<path d="M33.8178 24.7207C33.9012 24.736 33.9846 24.7513 34.0705 24.767C35.6681 25.071 37.2502 25.4666 38.8096 25.927C38.8992 25.9532 38.9888 25.9794 39.0811 26.0065C39.6961 26.1937 39.6961 26.1937 39.9359 26.4335C39.9359 27.9333 38.3723 29.2934 37.3833 30.2989C37.1713 30.5071 36.9554 30.7106 36.7369 30.9121C36.6349 31.0064 36.5329 31.1006 36.4278 31.1978C35.6064 31.887 34.9083 32.0429 33.8578 32.085C33.7019 32.0931 33.7019 32.0931 33.5429 32.1014C31.9064 32.1859 30.2711 32.2066 28.6328 32.1916C28.774 31.8835 28.8964 31.7101 29.1327 31.4519C29.5254 31.0076 29.7711 30.5024 30.0428 29.9786C30.2095 29.6742 30.3861 29.4043 30.5922 29.126C31.3842 28.0268 31.9596 26.7833 32.4401 25.5213C32.7634 24.687 32.9416 24.548 33.8178 24.7207Z" fill="#F1771B"/>
<path d="M32.1519 14.9171C32.5256 14.9819 32.7394 15.1256 33.0316 15.3636C33.3471 15.6174 33.6641 15.8649 33.9913 16.1034C35.9778 17.5943 37.8401 20.0724 38.883 22.3147C38.9291 22.413 38.9752 22.5112 39.0227 22.6124C39.8582 24.411 39.8582 24.411 39.8294 25.1538C39.2555 25.4408 38.4164 25.0567 37.8434 24.8673C36.7409 24.5155 35.617 24.2993 34.4796 24.0974C34.3468 24.0729 34.2139 24.0483 34.0771 24.023C33.9577 24.0019 33.8384 23.9808 33.7155 23.9591C33.4314 23.8742 33.4314 23.8742 33.2182 23.5544C33.2036 23.2529 33.2012 22.9623 33.2086 22.6613C33.2108 22.4772 33.2129 22.2931 33.2151 22.109C33.2196 21.8215 33.2247 21.5341 33.2306 21.2467C33.2627 19.551 33.1526 17.8877 32.625 16.2634C32.6028 16.1905 32.5806 16.1176 32.5578 16.0426C32.4395 15.6599 32.3066 15.2865 32.1519 14.9171Z" fill="#F0771B"/>
<path d="M22.3285 14.965C22.9207 15.398 23.2901 15.9216 23.5144 16.6233C23.6368 17.6242 23.6084 18.5663 22.9812 19.3957C22.4721 19.9629 21.9071 20.3094 21.1468 20.3929C20.1899 20.4322 19.459 20.2958 18.733 19.6469C18.0162 18.8705 17.8904 18.0763 17.9258 17.0452C18.0059 16.2724 18.2951 15.7169 18.8625 15.1904C19.8923 14.4153 21.1933 14.3033 22.3285 14.965Z" fill="black"/>
<path d="M41.7488 27.4998C41.8291 27.5268 41.9094 27.5539 41.9921 27.5818C42.9337 27.8869 43.867 28.0804 44.8412 28.2462C44.9559 28.2671 45.0707 28.288 45.189 28.3095C46.4336 28.5308 47.6497 28.5783 48.9115 28.5622C49.452 28.5571 49.9601 28.5787 50.4927 28.6727C50.4927 28.8135 50.4927 28.9542 50.4927 29.0992C49.4361 29.4423 48.3686 29.7227 47.2908 29.9901C47.0163 30.0583 46.742 30.1273 46.4677 30.1964C44.6544 30.6505 42.8366 31.0347 40.9897 31.3242C40.7257 31.3657 40.462 31.4087 40.1983 31.4518C39.3567 31.5865 38.5521 31.6966 37.6968 31.6584C37.8821 31.2547 38.0908 31.0602 38.4432 30.7854C39.1805 30.1969 39.9175 29.6074 40.5225 28.8793C40.6545 28.7243 40.6545 28.7243 40.7891 28.5661C40.8595 28.5661 40.9299 28.5661 41.0024 28.5661C41.0266 28.4891 41.0508 28.4121 41.0757 28.3328C41.2421 27.9762 41.4612 27.7646 41.7488 27.4998Z" fill="#E74435"/>
<path d="M68.4973 29.025C68.4973 29.725 68.5673 30.2617 68.7073 30.635C68.8706 30.985 69.1973 31.23 69.6873 31.37C70.1773 31.51 70.9006 31.58 71.8573 31.58C71.9273 31.58 71.9623 31.65 71.9623 31.79C71.9623 31.93 71.9273 32 71.8573 32C71.1106 32 70.2939 31.9883 69.4073 31.965C68.5439 31.9417 67.5989 31.93 66.5723 31.93C65.7323 31.93 64.9273 31.9417 64.1573 31.965C63.4106 31.9883 62.7339 32 62.1273 32C62.0573 32 62.0223 31.93 62.0223 31.79C62.0223 31.65 62.0573 31.58 62.1273 31.58C62.8506 31.58 63.3873 31.5217 63.7373 31.405C64.0873 31.2883 64.3206 31.055 64.4373 30.705C64.5539 30.355 64.6123 29.8417 64.6123 29.165V12.96C64.6123 12.2833 64.5539 11.7817 64.4373 11.455C64.3206 11.105 64.0873 10.8717 63.7373 10.755C63.3873 10.615 62.8506 10.545 62.1273 10.545C62.0573 10.545 62.0223 10.475 62.0223 10.335C62.0223 10.195 62.0573 10.125 62.1273 10.125C62.7339 10.125 63.4106 10.1483 64.1573 10.195C64.9039 10.2183 65.6973 10.23 66.5373 10.23C67.0973 10.23 67.8323 10.195 68.7423 10.125C69.6523 10.055 70.5039 10.02 71.2973 10.02C72.7673 10.02 74.0623 10.2183 75.1823 10.615C76.3256 10.9883 77.2356 11.595 77.9123 12.435C78.5889 13.275 78.9506 14.3833 78.9973 15.76C79.0439 16.95 78.8456 17.9883 78.4023 18.875C77.9823 19.7617 77.3873 20.4967 76.6173 21.08C75.8706 21.6633 75.0306 22.1067 74.0973 22.41C73.1873 22.69 72.2773 22.83 71.3673 22.83C71.1339 22.83 70.8656 22.8183 70.5623 22.795C70.2823 22.7717 70.0023 22.725 69.7223 22.655C69.6523 22.6317 69.6289 22.55 69.6523 22.41C69.6756 22.2467 69.7339 22.1767 69.8273 22.2C70.0139 22.2467 70.2239 22.2817 70.4573 22.305C70.6906 22.3283 70.8773 22.34 71.0173 22.34C71.6939 22.34 72.3123 22.13 72.8723 21.71C73.4323 21.29 73.8873 20.6483 74.2373 19.785C74.5873 18.9217 74.7623 17.8483 74.7623 16.565C74.7623 15.3283 74.5873 14.29 74.2373 13.45C73.8873 12.5867 73.3739 11.9333 72.6973 11.49C72.0206 11.0233 71.1806 10.79 70.1773 10.79C69.7573 10.79 69.4189 10.8483 69.1623 10.965C68.9289 11.0817 68.7539 11.3033 68.6373 11.63C68.5439 11.9567 68.4973 12.4233 68.4973 13.03V29.025ZM94.6464 21.535L95.1714 20.555H102.381L102.626 21.535H94.6464ZM112.111 31.58C112.228 31.58 112.286 31.65 112.286 31.79C112.286 31.93 112.228 32 112.111 32C111.411 32 110.676 31.9767 109.906 31.93C109.16 31.8833 108.436 31.86 107.736 31.86C106.943 31.86 106.255 31.8833 105.671 31.93C105.088 31.9767 104.435 32 103.711 32C103.618 32 103.571 31.93 103.571 31.79C103.571 31.65 103.618 31.58 103.711 31.58C104.668 31.58 105.216 31.3933 105.356 31.02C105.52 30.6233 105.31 29.8533 104.726 28.71L97.6214 14.675L99.3364 11.665L92.3714 27.03C91.7414 28.43 91.7297 29.5383 92.3364 30.355C92.943 31.1717 93.8997 31.58 95.2064 31.58C95.323 31.58 95.3814 31.65 95.3814 31.79C95.3814 31.93 95.323 32 95.2064 32C94.5064 32 93.8647 31.9767 93.2814 31.93C92.698 31.8833 91.963 31.86 91.0764 31.86C90.1664 31.86 89.4314 31.8833 88.8714 31.93C88.3347 31.9767 87.6697 32 86.8764 32C86.783 32 86.7364 31.93 86.7364 31.79C86.7364 31.65 86.783 31.58 86.8764 31.58C87.5064 31.58 88.043 31.4517 88.4864 31.195C88.953 30.915 89.408 30.425 89.8514 29.725C90.318 29.0017 90.843 27.9867 91.4264 26.68L99.0214 9.985C99.0447 9.915 99.1497 9.88 99.3364 9.88C99.523 9.85667 99.628 9.89167 99.6514 9.985L108.401 27.205C108.961 28.3017 109.44 29.1767 109.836 29.83C110.256 30.46 110.641 30.915 110.991 31.195C111.365 31.4517 111.738 31.58 112.111 31.58ZM135.145 9.74C136.125 9.74 137.175 9.82167 138.295 9.985C139.438 10.1483 140.337 10.3817 140.99 10.685C141.2 10.755 141.34 10.8483 141.41 10.965C141.48 11.0583 141.527 11.2333 141.55 11.49L141.97 16.355C141.97 16.425 141.912 16.4717 141.795 16.495C141.702 16.5183 141.632 16.4833 141.585 16.39C140.815 14.5933 139.765 13.1817 138.435 12.155C137.128 11.1283 135.577 10.615 133.78 10.615C132.217 10.615 130.887 11.0117 129.79 11.805C128.717 12.5983 127.9 13.7067 127.34 15.13C126.803 16.53 126.535 18.1633 126.535 20.03C126.535 21.64 126.733 23.1567 127.13 24.58C127.527 25.98 128.087 27.2167 128.81 28.29C129.533 29.34 130.397 30.1683 131.4 30.775C132.403 31.3817 133.512 31.685 134.725 31.685C136.218 31.685 137.548 31.195 138.715 30.215C139.905 29.235 140.967 27.7183 141.9 25.665C141.947 25.5717 142.028 25.5367 142.145 25.56C142.262 25.5833 142.32 25.63 142.32 25.7L141.795 30.46C141.748 30.74 141.69 30.9267 141.62 31.02C141.573 31.09 141.445 31.1717 141.235 31.265C140.162 31.6617 139.077 31.9533 137.98 32.14C136.907 32.3267 135.857 32.42 134.83 32.42C132.567 32.42 130.63 32.0817 129.02 31.405C127.41 30.705 126.092 29.795 125.065 28.675C124.062 27.5317 123.315 26.295 122.825 24.965C122.358 23.6117 122.125 22.2817 122.125 20.975C122.125 19.2483 122.475 17.6967 123.175 16.32C123.898 14.9433 124.867 13.765 126.08 12.785C127.317 11.805 128.705 11.0583 130.245 10.545C131.808 10.0083 133.442 9.74 135.145 9.74ZM160.343 10.93C158.92 10.93 157.706 11.4083 156.703 12.365C155.723 13.2983 154.941 14.6283 154.358 16.355C154.335 16.425 154.265 16.46 154.148 16.46C154.031 16.4367 153.973 16.39 153.973 16.32C154.02 15.9933 154.066 15.5383 154.113 14.955C154.16 14.3483 154.206 13.695 154.253 12.995C154.323 12.295 154.37 11.6183 154.393 10.965C154.44 10.3117 154.463 9.775 154.463 9.355C154.463 9.23833 154.521 9.18 154.638 9.18C154.778 9.18 154.848 9.23833 154.848 9.355C154.848 9.58833 154.965 9.76333 155.198 9.88C155.455 9.97333 155.735 10.0433 156.038 10.09C156.365 10.1133 156.633 10.125 156.843 10.125C158.85 10.195 161.195 10.23 163.878 10.23C165.511 10.23 166.818 10.2183 167.798 10.195C168.778 10.1483 169.723 10.125 170.633 10.125C171.473 10.125 172.103 10.0783 172.523 9.985C172.966 9.86833 173.246 9.62333 173.363 9.25C173.386 9.15667 173.456 9.11 173.573 9.11C173.713 9.11 173.783 9.15667 173.783 9.25C173.736 9.62333 173.69 10.1483 173.643 10.825C173.62 11.4783 173.585 12.1783 173.538 12.925C173.515 13.6483 173.491 14.325 173.468 14.955C173.445 15.5617 173.433 16.0167 173.433 16.32C173.433 16.39 173.375 16.425 173.258 16.425C173.141 16.425 173.071 16.39 173.048 16.32C172.698 14.4767 172.033 13.1233 171.053 12.26C170.096 11.3733 168.93 10.93 167.553 10.93C167.086 10.93 166.725 11 166.468 11.14C166.235 11.2567 166.071 11.4667 165.978 11.77C165.908 12.0733 165.873 12.4933 165.873 13.03V29.165C165.873 29.8417 165.943 30.355 166.083 30.705C166.223 31.055 166.491 31.2883 166.888 31.405C167.308 31.5217 167.938 31.58 168.778 31.58C168.848 31.58 168.883 31.65 168.883 31.79C168.883 31.93 168.848 32 168.778 32C168.125 32 167.39 31.9883 166.573 31.965C165.756 31.9417 164.858 31.93 163.878 31.93C162.945 31.93 162.07 31.9417 161.253 31.965C160.436 31.9883 159.69 32 159.013 32C158.943 32 158.908 31.93 158.908 31.79C158.908 31.65 158.943 31.58 159.013 31.58C159.83 31.58 160.448 31.5217 160.868 31.405C161.288 31.2883 161.568 31.055 161.708 30.705C161.871 30.355 161.953 29.8417 161.953 29.165V12.96C161.953 12.4467 161.906 12.05 161.813 11.77C161.743 11.4667 161.591 11.2567 161.358 11.14C161.125 11 160.786 10.93 160.343 10.93Z" fill="black"/>
</g>
<defs>
<clipPath id="clip0_1612_1916">
<rect width="175" height="42" fill="white" transform="translate(0.5)"/>
</clipPath>
</defs>
</svg>
