<svg width="250" height="164" viewBox="0 0 250 164" fill="none" xmlns="http://www.w3.org/2000/svg">
<g clip-path="url(#clip0_159_1197)">
<path d="M102.81 2.64366C103.157 2.72871 103.504 2.81376 103.862 2.90139C123.572 7.83125 141.055 19.3511 156.659 31.9676C157.658 32.7679 158.658 33.5676 159.658 34.3668C160.436 34.9889 161.213 35.6109 161.991 36.2329C160.229 37.4071 159.595 37.4528 157.536 37.52C156.957 37.5409 156.378 37.5618 155.781 37.5834C154.847 37.6077 154.847 37.6077 153.893 37.6325C152.933 37.6593 152.933 37.6593 151.952 37.6867C150.622 37.7216 149.291 37.7537 147.961 37.7832C146.113 37.8295 144.269 37.9004 142.422 37.9761C136.405 38.1705 131.946 38.1122 126.802 34.6334C118.099 29.8637 109.821 28.0395 99.944 28.1022C99.2979 28.0981 98.6519 28.0939 97.9863 28.0897C91.0249 28.1045 84.6464 29.0839 78.051 31.3012C77.4719 31.4923 76.8928 31.6835 76.2961 31.8804C69.4075 34.18 62.9834 36.8354 56.6071 40.3178C55.9941 40.6514 55.9941 40.6514 55.3687 40.9918C55.0063 41.192 54.644 41.3922 54.2707 41.5985C53.2179 42.1014 52.2317 42.3897 51.093 42.6309C51.093 42.9828 51.093 43.3346 51.093 43.6972C50.7871 43.8477 50.4813 43.9982 50.1662 44.1533C38.8738 49.9965 28.6172 58.2552 19.1032 66.6232C18.6991 66.9737 18.295 67.3242 17.8786 67.6853C16.8598 68.5696 15.8479 69.4611 14.8379 70.3553C14.3809 70.7567 13.9238 71.1581 13.4529 71.5716C12.9753 71.995 12.4976 72.4183 12.0055 72.8545C11.5677 73.2415 11.1299 73.6284 10.6788 74.0271C8.47325 76.0573 8.47325 76.0573 7.82972 78.8755C7.88814 79.4398 7.94656 80.004 8.00675 80.5854C8.05829 81.1538 8.10984 81.7221 8.16295 82.3077C8.25435 82.762 8.34576 83.2163 8.43994 83.6844C8.79183 83.8603 9.14371 84.0363 9.50626 84.2176C10.0207 85.1089 10.0207 85.1089 10.5393 86.2169C11.1603 87.5145 11.7843 88.7198 12.5386 89.949C13.1995 91.0819 13.5342 91.9998 13.7716 93.2813C14.1235 93.2813 14.4753 93.2813 14.8379 93.2813C15.0564 93.6985 15.275 94.1157 15.5002 94.5455C15.7875 95.085 16.0747 95.6245 16.3707 96.1804C16.6553 96.7185 16.9398 97.2567 17.233 97.8111C17.9071 99.2002 17.9071 99.2002 19.1032 99.6793C19.6493 100.56 20.1806 101.45 20.7027 102.345C23.7903 106.665 27.509 110.383 31.2644 114.112C32.2381 115.08 33.2059 116.054 34.1734 117.028C34.7992 117.653 35.4254 118.278 36.0519 118.902C36.3369 119.189 36.6219 119.477 36.9155 119.772C39.0959 121.926 41.4212 123.56 44.0952 125.071C44.4691 125.313 44.843 125.555 45.2282 125.804C45.2282 126.156 45.2282 126.508 45.2282 126.871C45.6172 127.013 46.0062 127.155 46.407 127.302C47.8788 127.93 49.0444 128.663 50.3599 129.57C66.7958 140.18 87.8161 144.439 107.007 140.453C109.488 139.899 111.934 139.231 114.383 138.552C118.505 137.413 122.588 136.841 126.835 136.401C127.283 136.354 127.73 136.307 128.192 136.259C131.119 135.975 133.991 135.893 136.932 135.934C136.759 136.23 136.586 136.527 136.408 136.832C135.788 138.245 135.728 139.232 135.724 140.77C135.723 141.293 135.721 141.815 135.72 142.353C135.724 142.896 135.728 143.439 135.733 143.998C135.728 144.529 135.724 145.06 135.72 145.606C135.73 149.415 136.214 152.929 137.181 156.608C137.519 158.018 137.777 159.433 138.032 160.86C138.126 161.385 138.22 161.91 138.317 162.451C138.388 162.849 138.459 163.248 138.532 163.659C121.434 163.695 104.335 163.724 87.2372 163.74C85.2204 163.742 83.2036 163.745 81.1867 163.747C80.7852 163.747 80.3836 163.748 79.9699 163.748C73.4614 163.755 66.9528 163.768 60.4443 163.782C53.77 163.797 47.0957 163.806 40.4214 163.809C36.3003 163.811 32.1792 163.818 28.0581 163.831C24.9024 163.841 21.7467 163.842 18.591 163.84C17.2932 163.84 15.9955 163.843 14.6977 163.849C12.9329 163.857 11.1684 163.856 9.40358 163.851C8.88391 163.856 8.36424 163.86 7.82882 163.865C7.12361 163.86 7.12361 163.86 6.40415 163.856C5.79254 163.857 5.79254 163.857 5.16857 163.857C4.84058 163.792 4.51258 163.726 4.17464 163.659C2.60352 161.302 2.62688 158.944 2.34189 156.161C2.24318 155.205 2.24318 155.205 2.14248 154.23C0.487547 137.525 -0.676262 120.714 0.442499 103.945C0.482018 103.292 0.521536 102.64 0.562252 101.968C0.93679 95.8085 1.39553 89.6556 2.04199 83.5178C2.07974 83.1485 2.1175 82.7792 2.1564 82.3987C2.4224 80.0695 2.97052 77.9292 3.64148 75.6869C4.01565 74.1806 4.36137 72.668 4.7078 71.1551C6.0202 65.4236 7.57267 59.8355 10.029 54.4812C10.374 53.7278 10.7098 52.97 11.0329 52.207C14.9116 43.0825 20.2195 34.7637 26.5675 27.1691C26.8005 26.8709 27.0334 26.5726 27.2735 26.2653C28.7856 24.3462 30.5003 22.7917 32.3552 21.219C33.1044 20.5762 33.8398 19.9169 34.5587 19.2404C45.2449 9.23844 59.0915 3.10049 73.4858 1.04417C74.0088 0.967883 74.5318 0.891595 75.0707 0.812995C84.1303 -0.174656 93.9773 0.421546 102.81 2.64366Z" fill="black"/>
<path d="M157.726 42.0977C171.104 41.8124 180.506 45.7221 191.848 52.761C192.224 52.9929 192.6 53.2249 192.987 53.4639C202.242 59.1867 202.242 59.1867 205.498 61.8643C206.632 62.7747 207.783 63.6406 208.955 64.501C209.543 64.934 209.543 64.934 210.143 65.3757C210.933 65.9564 211.725 66.5347 212.519 67.1106C212.879 67.3765 213.239 67.6425 213.61 67.9166C213.937 68.1553 214.263 68.394 214.6 68.6399C214.834 68.8541 215.067 69.0683 215.307 69.289C215.307 69.6409 215.307 69.9928 215.307 70.3554C215.884 70.5368 215.884 70.5368 216.473 70.7219C218.241 71.5466 219.306 72.7109 220.639 74.0875C221.27 74.7149 221.903 75.341 222.536 75.9661C223.225 76.6505 223.915 77.335 224.604 78.0196C224.947 78.3577 225.289 78.6959 225.642 79.0442C227.823 81.214 229.871 83.4502 231.835 85.8171C232.229 86.2865 232.623 86.7559 233.029 87.2395C237.405 92.5551 241.53 97.7747 244.631 103.945C244.96 104.589 245.289 105.233 245.618 105.877C246.988 108.577 248.305 111.263 249.43 114.075C249.606 114.251 249.781 114.427 249.963 114.608C250.001 115.418 250.007 116.23 249.996 117.04C249.991 117.481 249.986 117.922 249.981 118.375C249.972 118.886 249.972 118.886 249.963 119.406C246.222 119.248 242.742 118.606 239.123 117.658C236.052 116.854 232.967 116.135 229.869 115.441C225.845 114.533 221.823 113.618 217.806 112.675C217.358 112.572 216.91 112.468 216.448 112.362C208.524 110.49 208.524 110.49 206.777 108.743C206.551 107.713 206.551 107.713 206.416 106.452C206.362 105.989 206.307 105.526 206.251 105.048C206.165 104.304 206.165 104.304 206.077 103.545C204.625 92.6197 199.643 82.7904 192.914 74.0875C192.703 73.8091 192.491 73.5306 192.274 73.2438C187.795 67.3507 183.207 61.7514 177.359 57.1512C175.828 55.9404 174.362 54.6717 172.887 53.3941C168.281 49.5385 163.151 45.7771 157.726 43.1641C157.726 42.8122 157.726 42.4603 157.726 42.0977Z" fill="#E84335"/>
<path d="M166.589 100.712C167.006 100.789 167.423 100.865 167.853 100.944C175.841 102.464 183.751 104.442 191.548 106.744C191.996 106.875 192.444 107.006 192.906 107.141C195.981 108.077 195.981 108.077 197.18 109.276C197.18 116.775 189.362 123.576 184.417 128.603C183.357 129.644 182.277 130.662 181.185 131.669C180.675 132.141 180.165 132.612 179.639 133.098C175.532 136.544 172.042 137.323 166.789 137.534C166.01 137.574 166.01 137.574 165.215 137.616C157.032 138.038 148.856 138.142 140.664 138.067C141.37 136.526 141.982 135.659 143.164 134.368C145.127 132.147 146.356 129.621 147.714 127.002C148.548 125.48 149.431 124.13 150.461 122.739C154.421 117.243 157.298 111.025 159.701 104.715C161.317 100.544 162.208 99.8486 166.589 100.712Z" fill="#F1771B"/>
<path d="M158.259 51.6946C160.128 52.0187 161.197 52.7372 162.657 53.9273C164.235 55.1959 165.82 56.4334 167.456 57.6261C177.389 65.0805 186.7 77.471 191.915 88.6828C192.145 89.1739 192.376 89.6649 192.613 90.1709C196.79 99.164 196.79 99.164 196.647 102.878C193.777 104.313 189.582 102.393 186.716 101.445C181.204 99.6865 175.585 98.6057 169.898 97.5962C169.233 97.4733 168.569 97.3504 167.885 97.2238C167.288 97.1185 166.692 97.0133 166.077 96.9048C164.657 96.4803 164.657 96.4803 163.59 94.8808C163.518 93.3737 163.505 91.9204 163.543 90.4156C163.553 89.495 163.564 88.5745 163.575 87.654C163.598 86.2167 163.623 84.7795 163.653 83.3423C163.813 74.8641 163.263 66.5477 160.625 58.4258C160.514 58.0616 160.403 57.6973 160.288 57.322C159.697 55.4085 159.033 53.5418 158.259 51.6946Z" fill="#F0771B"/>
<path d="M109.143 51.9342C112.104 54.0991 113.951 56.7171 115.072 60.2252C115.685 65.2302 115.542 69.9407 112.407 74.0875C109.861 76.9233 107.036 78.6561 103.235 79.0734C98.4498 79.2702 94.7954 78.5878 91.1655 75.3433C87.5815 71.4614 86.9524 67.4905 87.1293 62.335C87.5298 58.471 88.9759 55.6932 91.8132 53.0609C96.962 49.1855 103.467 48.6253 109.143 51.9342Z" fill="black"/>
<path d="M206.243 114.608C206.645 114.743 207.046 114.879 207.46 115.018C212.168 116.544 216.834 117.511 221.705 118.34C222.279 118.444 222.853 118.549 223.444 118.657C229.667 119.763 235.748 120.001 242.057 119.92C244.759 119.895 247.3 120.002 249.963 120.473C249.963 121.176 249.963 121.88 249.963 122.605C244.68 124.32 239.342 125.722 233.953 127.06C232.581 127.401 231.209 127.746 229.838 128.091C220.771 130.362 211.682 132.282 202.448 133.73C201.128 133.938 199.809 134.153 198.491 134.368C194.283 135.042 190.26 135.592 185.983 135.401C186.91 133.382 187.953 132.41 189.715 131.036C193.402 128.093 197.087 125.146 200.112 121.506C200.772 120.73 200.772 120.73 201.445 119.939C201.797 119.939 202.149 119.939 202.511 119.939C202.632 119.555 202.753 119.17 202.878 118.773C203.71 116.99 204.805 115.932 206.243 114.608Z" fill="#E74435"/>
</g>
<defs>
<clipPath id="clip0_159_1197">
<rect width="250" height="163.51" fill="white" transform="translate(0 0.351074)"/>
</clipPath>
</defs>
</svg>
