<svg width="50" height="51" viewBox="0 0 50 51" fill="none" xmlns="http://www.w3.org/2000/svg">
<path d="M22.2924 9.10784C22.3512 9.12224 22.41 9.13663 22.4706 9.15147C25.807 9.98598 28.7665 11.936 31.408 14.0717C31.5771 14.2072 31.7463 14.3426 31.9156 14.4779C32.0473 14.5832 32.1789 14.6885 32.3105 14.7938C32.0123 14.9925 31.905 15.0003 31.5564 15.0116C31.4584 15.0152 31.3604 15.0187 31.2594 15.0224C31.1012 15.0265 31.1012 15.0265 30.9398 15.0307C30.7771 15.0352 30.7771 15.0352 30.6112 15.0399C30.386 15.0458 30.1608 15.0512 29.9355 15.0562C29.6228 15.064 29.3105 15.076 28.9979 15.0888C27.9794 15.1217 27.2246 15.1119 26.3538 14.523C24.8806 13.7156 23.4794 13.4068 21.8073 13.4174C21.698 13.4167 21.5886 13.416 21.4759 13.4153C20.2975 13.4178 19.2178 13.5836 18.1013 13.9589C18.0033 13.9913 17.9053 14.0236 17.8043 14.057C16.6382 14.4463 15.5507 14.8957 14.4713 15.4852C14.3676 15.5417 14.3676 15.5417 14.2617 15.5993C14.2004 15.6332 14.139 15.6671 14.0759 15.702C13.8976 15.7872 13.7307 15.836 13.5379 15.8768C13.5379 15.9364 13.5379 15.9959 13.5379 16.0573C13.4862 16.0828 13.4344 16.1083 13.381 16.1345C11.4695 17.1236 9.73328 18.5216 8.12277 19.9382C8.05436 19.9975 7.98595 20.0568 7.91547 20.118C7.74301 20.2677 7.57173 20.4186 7.40075 20.5699C7.32338 20.6379 7.24601 20.7058 7.1663 20.7758C7.08544 20.8475 7.00459 20.9192 6.92128 20.993C6.84717 21.0585 6.77306 21.124 6.6967 21.1915C6.32335 21.5351 6.32335 21.5351 6.21442 22.0122C6.22431 22.1077 6.23419 22.2032 6.24438 22.3017C6.25311 22.3979 6.26183 22.4941 6.27082 22.5932C6.2863 22.6701 6.30177 22.747 6.31771 22.8262C6.37728 22.856 6.43685 22.8858 6.49822 22.9165C6.5853 23.0674 6.5853 23.0674 6.67308 23.2549C6.77821 23.4746 6.88384 23.6786 7.01153 23.8867C7.1234 24.0785 7.18007 24.2339 7.22024 24.4508C7.27981 24.4508 7.33937 24.4508 7.40075 24.4508C7.43774 24.5214 7.47474 24.592 7.51286 24.6648C7.56149 24.7561 7.61012 24.8475 7.66022 24.9415C7.70839 25.0326 7.75655 25.1237 7.80618 25.2176C7.92029 25.4527 7.92029 25.4527 8.12277 25.5338C8.2152 25.6829 8.30516 25.8336 8.39353 25.9851C8.91619 26.7163 9.54568 27.3458 10.1814 27.977C10.3462 28.1409 10.5101 28.3057 10.6738 28.4706C10.7798 28.5764 10.8858 28.6822 10.9918 28.7879C11.0401 28.8365 11.0883 28.8851 11.138 28.9352C11.5071 29.2997 11.9007 29.5763 12.3534 29.8321C12.4167 29.8731 12.4799 29.914 12.5452 29.9562C12.5452 30.0158 12.5452 30.0753 12.5452 30.1367C12.611 30.1608 12.6768 30.1849 12.7447 30.2097C12.9938 30.3161 13.1912 30.4402 13.4138 30.5936C16.1961 32.3897 19.7543 33.1107 23.003 32.4359C23.4229 32.3421 23.837 32.2291 24.2516 32.1142C24.9494 31.9213 25.6404 31.8246 26.3595 31.75C26.4352 31.7421 26.511 31.7341 26.589 31.726C27.0846 31.6779 27.5708 31.664 28.0686 31.671C28.0393 31.7211 28.01 31.7713 27.9799 31.8229C27.8749 32.0621 27.8648 32.2293 27.8641 32.4896C27.8639 32.5781 27.8637 32.6665 27.8634 32.7576C27.8641 32.8495 27.8648 32.9414 27.8655 33.0361C27.8649 33.1259 27.8642 33.2157 27.8634 33.3083C27.8651 33.9529 27.9471 34.5478 28.1107 35.1706C28.1679 35.4092 28.2116 35.6488 28.2548 35.8903C28.2707 35.9792 28.2866 36.0681 28.3031 36.1597C28.315 36.2272 28.327 36.2946 28.3394 36.3642C25.445 36.3703 22.5507 36.3751 19.6564 36.378C19.315 36.3783 18.9735 36.3787 18.6321 36.379C18.5642 36.3791 18.4962 36.3792 18.4262 36.3792C17.3244 36.3804 16.2227 36.3826 15.1209 36.385C13.9911 36.3876 12.8613 36.3891 11.7315 36.3896C11.0339 36.39 10.3362 36.3912 9.63863 36.3934C9.10444 36.395 8.57026 36.3951 8.03607 36.3948C7.81638 36.3949 7.5967 36.3954 7.37701 36.3964C7.07827 36.3978 6.77958 36.3975 6.48084 36.3967C6.39287 36.3975 6.3049 36.3983 6.21426 36.3991C6.09489 36.3983 6.09489 36.3983 5.9731 36.3975C5.86957 36.3976 5.86957 36.3976 5.76394 36.3978C5.70842 36.3867 5.6529 36.3756 5.59569 36.3642C5.32974 35.9652 5.33369 35.5661 5.28545 35.095C5.26874 34.9332 5.26874 34.9332 5.25169 34.7681C4.97155 31.9403 4.77454 29.0946 4.96392 26.2559C4.97061 26.1455 4.9773 26.0351 4.98419 25.9213C5.0476 24.8786 5.12525 23.837 5.23468 22.798C5.24107 22.7355 5.24746 22.673 5.25405 22.6086C5.29908 22.2143 5.39186 21.852 5.50544 21.4725C5.56878 21.2175 5.6273 20.9614 5.68594 20.7053C5.90811 19.7351 6.1709 18.7892 6.58671 17.8828C6.64511 17.7553 6.70195 17.627 6.75664 17.4978C7.41322 15.9532 8.31174 14.5451 9.38631 13.2595C9.42575 13.209 9.46519 13.1585 9.50582 13.1065C9.76179 12.7816 10.052 12.5185 10.366 12.2522C10.4929 12.1434 10.6173 12.0318 10.739 11.9173C12.548 10.2242 14.8919 9.18517 17.3285 8.83708C17.4171 8.82417 17.5056 8.81125 17.5968 8.79795C19.1304 8.63076 20.7973 8.73168 22.2924 9.10784Z" fill="white"/>
<path d="M31.5885 15.7867C33.8532 15.7384 35.4447 16.4002 37.3647 17.5917C37.4283 17.631 37.4919 17.6702 37.5575 17.7107C39.1242 18.6794 39.1242 18.6794 39.6753 19.1327C39.8672 19.2868 40.0621 19.4334 40.2605 19.579C40.36 19.6523 40.36 19.6523 40.4616 19.7271C40.5954 19.8254 40.7294 19.9233 40.8638 20.0208C40.9247 20.0658 40.9857 20.1108 41.0485 20.1572C41.1038 20.1976 41.1591 20.238 41.2161 20.2797C41.2556 20.3159 41.2951 20.3522 41.3358 20.3895C41.3358 20.4491 41.3358 20.5087 41.3358 20.57C41.4335 20.6008 41.4335 20.6008 41.5332 20.6321C41.8324 20.7717 42.0127 20.9688 42.2383 21.2018C42.3452 21.308 42.4522 21.414 42.5595 21.5198C42.6762 21.6357 42.7929 21.7516 42.9096 21.8674C42.9676 21.9247 43.0256 21.9819 43.0853 22.0409C43.4545 22.4082 43.8011 22.7867 44.1336 23.1874C44.2003 23.2668 44.267 23.3463 44.3356 23.4282C45.0764 24.328 45.7747 25.2115 46.2997 26.256C46.3554 26.365 46.4111 26.4741 46.4668 26.5831C46.6987 27.0401 46.9216 27.4948 47.112 27.9708C47.1418 28.0005 47.1715 28.0303 47.2022 28.061C47.2087 28.1981 47.2098 28.3355 47.2079 28.4728C47.207 28.5474 47.2062 28.6219 47.2054 28.6988C47.2038 28.7852 47.2038 28.7852 47.2022 28.8733C46.5691 28.8465 45.9798 28.7378 45.3673 28.5774C44.8474 28.4413 44.3252 28.3196 43.8008 28.202C43.1196 28.0483 42.4387 27.8934 41.7589 27.7339C41.683 27.7163 41.6071 27.6988 41.5289 27.6808C40.1875 27.364 40.1875 27.364 39.8918 27.0682C39.8536 26.8938 39.8536 26.8938 39.8308 26.6804C39.8215 26.602 39.8123 26.5236 39.8027 26.4428C39.7882 26.3168 39.7882 26.3168 39.7733 26.1883C39.5276 24.3389 38.6841 22.675 37.5452 21.2018C37.5094 21.1547 37.4736 21.1075 37.4367 21.059C36.6785 20.0614 35.9019 19.1136 34.912 18.3349C34.6529 18.1299 34.4047 17.9152 34.1551 17.6989C33.3753 17.0462 32.5069 16.4095 31.5885 15.9672C31.5885 15.9076 31.5885 15.848 31.5885 15.7867Z" fill="#E84335"/>
<path d="M33.0889 25.7087C33.1594 25.7217 33.23 25.7346 33.3027 25.7479C34.6549 26.0052 35.994 26.3401 37.3138 26.7297C37.3897 26.7519 37.4655 26.7741 37.5436 26.797C38.0641 26.9555 38.0641 26.9555 38.2671 27.1584C38.2671 28.4278 36.9437 29.579 36.1067 30.4301C35.9272 30.6063 35.7444 30.7785 35.5595 30.949C35.4732 31.0288 35.3869 31.1087 35.2979 31.1909C34.6027 31.7743 34.0118 31.9062 33.1227 31.9418C32.9908 31.9487 32.9908 31.9487 32.8562 31.9557C31.4711 32.0272 30.087 32.0447 28.7003 32.0321C28.8198 31.7713 28.9234 31.6245 29.1234 31.4059C29.4558 31.0299 29.6637 30.6023 29.8937 30.159C30.0348 29.9013 30.1843 29.6729 30.3587 29.4373C31.029 28.507 31.516 27.4545 31.9228 26.3863C32.1964 25.6803 32.3472 25.5625 33.0889 25.7087Z" fill="#F1771B"/>
<path d="M31.6787 17.4111C31.9951 17.466 32.176 17.5876 32.4233 17.7891C32.6903 18.0038 32.9587 18.2133 33.2356 18.4152C34.917 19.6771 36.4932 21.7745 37.3759 23.6724C37.4149 23.7555 37.4539 23.8387 37.4941 23.9243C38.2013 25.4467 38.2013 25.4467 38.1769 26.0754C37.6911 26.3183 36.981 25.9932 36.4959 25.8328C35.5628 25.5351 34.6116 25.3521 33.6489 25.1813C33.5365 25.1605 33.424 25.1397 33.3082 25.1182C33.2072 25.1004 33.1062 25.0826 33.0021 25.0642C32.7617 24.9924 32.7617 24.9924 32.5812 24.7216C32.5689 24.4665 32.5668 24.2205 32.5731 23.9657C32.575 23.8099 32.5768 23.6541 32.5786 23.4983C32.5825 23.255 32.5868 23.0117 32.5917 22.7684C32.6189 21.3332 32.5258 19.9254 32.0792 18.5506C32.0604 18.4889 32.0416 18.4273 32.0223 18.3637C31.9221 18.0398 31.8097 17.7238 31.6787 17.4111Z" fill="#F0771B"/>
<path d="M23.3645 17.4517C23.8658 17.8181 24.1784 18.2613 24.3682 18.8552C24.4719 19.7024 24.4478 20.4998 23.917 21.2017C23.4861 21.6818 23.0079 21.9751 22.3643 22.0457C21.5544 22.0791 20.9358 21.9635 20.3213 21.4143C19.7146 20.7572 19.6081 20.085 19.6381 19.2123C19.7059 18.5582 19.9507 18.088 20.431 17.6424C21.3025 16.9864 22.4036 16.8916 23.3645 17.4517Z" fill="white"/>
<path d="M39.8014 28.061C39.8694 28.084 39.9373 28.1069 40.0073 28.1305C40.8043 28.3887 41.5942 28.5525 42.4188 28.6928C42.5159 28.7105 42.613 28.7282 42.7131 28.7464C43.7666 28.9337 44.7959 28.9739 45.8638 28.9603C46.3213 28.956 46.7514 28.9742 47.2022 29.0538C47.2022 29.1729 47.2022 29.2921 47.2022 29.4148C46.3078 29.7052 45.4043 29.9425 44.4921 30.1688C44.2598 30.2266 44.0276 30.285 43.7955 30.3434C42.2607 30.7278 40.7222 31.0529 39.1589 31.298C38.9355 31.3332 38.7123 31.3696 38.4891 31.406C37.7768 31.52 37.0957 31.6132 36.3718 31.5809C36.5287 31.2392 36.7053 31.0746 37.0036 30.8419C37.6277 30.3438 38.2515 29.8449 38.7635 29.2287C38.8752 29.0974 38.8752 29.0974 38.9892 28.9636C39.0487 28.9636 39.1083 28.9636 39.1697 28.9636C39.1901 28.8984 39.2106 28.8333 39.2317 28.7661C39.3726 28.4643 39.558 28.2852 39.8014 28.061Z" fill="#E74435"/>
</svg>
