<svg width="9" height="12" viewBox="0 0 9 12" fill="none" xmlns="http://www.w3.org/2000/svg">
<path d="M4.68045e-06 6.53577C4.68045e-06 9.02014 2.01563 11.4108 4.5 11.4108C6.98438 11.4108 9 9.02014 9 6.53577L7.20001 5.78577L6 6.38577L4.5 5.78577L3 6.38577L1.8 5.78577L4.68045e-06 6.53577Z" fill="#F2771B"/>
<path d="M7.44486 2.61879C8.00459 3.56334 8.34394 4.71459 8.45738 5.76801L7.39231 5.32423L7.18108 5.23621L6.9764 5.33855L5.97723 5.83814L4.6857 5.32153L4.5 5.24725L4.31431 5.32153L3.02278 5.83814L2.02361 5.33855L1.81893 5.23621L1.6077 5.32423L0.542632 5.76801C0.656064 4.71459 0.99542 3.56334 1.55515 2.61879C2.25369 1.44001 3.24103 0.660767 4.5 0.660767C5.75898 0.660767 6.74632 1.44001 7.44486 2.61879ZM4.5 10.9108C2.44639 10.9108 0.679544 8.9969 0.512849 6.86375L1.78108 6.33532L2.7764 6.83298L2.97723 6.93339L3.1857 6.85001L4.5 6.32428L5.81431 6.85001L6.02278 6.93339L6.22361 6.83298L7.21893 6.33532L8.48716 6.86375C8.32047 8.9969 6.55362 10.9108 4.5 10.9108Z" stroke="black"/>
</svg>
