<svg width="25" height="25" viewBox="0 0 25 26" fill="none" xmlns="http://www.w3.org/2000/svg">
<g clip-path="url(#clip0_1621_8010)">
<path d="M12.5 13C13.7361 13 14.9445 12.6334 15.9723 11.9467C17.0001 11.2599 17.8012 10.2838 18.2742 9.14177C18.7473 7.99974 18.8711 6.74307 18.6299 5.53069C18.3888 4.31831 17.7935 3.20466 16.9194 2.33059C16.0453 1.45651 14.9317 0.861252 13.7193 0.620095C12.5069 0.378937 11.2503 0.502708 10.1082 0.975756C8.96619 1.4488 7.99007 2.24988 7.30331 3.27769C6.61656 4.3055 6.25 5.51387 6.25 6.75C6.25165 8.4071 6.91067 9.99585 8.08241 11.1676C9.25415 12.3393 10.8429 12.9983 12.5 13ZM12.5 2.58334C13.3241 2.58334 14.1297 2.82771 14.8149 3.28555C15.5001 3.74339 16.0341 4.39413 16.3495 5.15549C16.6649 5.91685 16.7474 6.75462 16.5866 7.56288C16.4258 8.37113 16.029 9.11356 15.4463 9.69628C14.8636 10.279 14.1211 10.6758 13.3129 10.8366C12.5046 10.9974 11.6668 10.9149 10.9055 10.5995C10.1441 10.2841 9.49338 9.75008 9.03554 9.06488C8.5777 8.37967 8.33333 7.57409 8.33333 6.75C8.33333 5.64493 8.77232 4.58513 9.55372 3.80372C10.3351 3.02232 11.3949 2.58334 12.5 2.58334Z" fill="black"/>
<path d="M12.5 15.0833C10.0144 15.086 7.63147 16.0746 5.87392 17.8322C4.11636 19.5897 3.12776 21.9727 3.125 24.4583C3.125 24.7345 3.23475 24.9995 3.4301 25.1948C3.62545 25.3902 3.8904 25.4999 4.16667 25.4999C4.44293 25.4999 4.70789 25.3902 4.90324 25.1948C5.09859 24.9995 5.20833 24.7345 5.20833 24.4583C5.20833 22.5244 5.97656 20.6697 7.34401 19.3023C8.71146 17.9348 10.5661 17.1666 12.5 17.1666C14.4339 17.1666 16.2885 17.9348 17.656 19.3023C19.0234 20.6697 19.7917 22.5244 19.7917 24.4583C19.7917 24.7345 19.9014 24.9995 20.0968 25.1948C20.2921 25.3902 20.5571 25.4999 20.8333 25.4999C21.1096 25.4999 21.3746 25.3902 21.5699 25.1948C21.7653 24.9995 21.875 24.7345 21.875 24.4583C21.8722 21.9727 20.8836 19.5897 19.1261 17.8322C17.3685 16.0746 14.9856 15.086 12.5 15.0833Z" fill="black"/>
</g>
<defs>
<clipPath id="clip0_1621_8010">
<rect width="25" height="25" fill="white" transform="translate(0 0.5)"/>
</clipPath>
</defs>
</svg>
