<svg width="75" height="86" viewBox="0 0 75 86" fill="none" xmlns="http://www.w3.org/2000/svg">
<path d="M51.2381 35.4523C47.5945 39.0959 42.6528 41.1428 37.5 41.1428C32.3472 41.1428 27.4055 39.0959 23.7619 35.4523C20.1184 31.8087 18.0714 26.867 18.0714 21.7142C18.0714 16.5614 20.1184 11.6197 23.7619 7.97614C27.4055 4.33258 32.3472 2.28564 37.5 2.28564C42.6528 2.28564 47.5945 4.33258 51.2381 7.97614C54.8816 11.6197 56.9286 16.5614 56.9286 21.7142C56.9286 26.867 54.8816 31.8087 51.2381 35.4523ZM2 81.0278C2 65.6424 14.4639 53.1785 29.8493 53.1785H45.1507C60.5361 53.1785 73 65.6424 73 81.0278C73 82.6688 71.6689 83.9999 70.0279 83.9999H4.9721C3.33113 83.9999 2 82.6688 2 81.0278Z" fill="black" stroke="black" stroke-width="4"/>
</svg>
