<svg width="75" height="86" viewBox="0 0 75 86" fill="none" xmlns="http://www.w3.org/2000/svg">
<g clip-path="url(#clip0_1064_20914)">
<path d="M25.4464 4.3035C25.4464 2.07694 23.6551 0.285645 21.4286 0.285645C19.202 0.285645 17.4107 2.07694 17.4107 4.3035V10.9999H10.7143C4.80469 10.9999 0 15.8046 0 21.7142V24.3928V32.4285V75.2856C0 81.1952 4.80469 85.9999 10.7143 85.9999H64.2857C70.1953 85.9999 75 81.1952 75 75.2856V32.4285V24.3928V21.7142C75 15.8046 70.1953 10.9999 64.2857 10.9999H57.5893V4.3035C57.5893 2.07694 55.798 0.285645 53.5714 0.285645C51.3449 0.285645 49.5536 2.07694 49.5536 4.3035V10.9999H25.4464V4.3035ZM8.03571 32.4285H66.9643V75.2856C66.9643 76.7589 65.7589 77.9642 64.2857 77.9642H10.7143C9.24107 77.9642 8.03571 76.7589 8.03571 75.2856V32.4285Z" fill="black"/>
</g>
<defs>
<clipPath id="clip0_1064_20914">
<rect width="75" height="85.7143" fill="white" transform="translate(0 0.285645)"/>
</clipPath>
</defs>
</svg>
