<svg width="30" height="30" viewBox="0 0 75 75" fill="none" xmlns="http://www.w3.org/2000/svg">
<path d="M37.5 75C47.4456 75 56.9839 71.0491 64.0165 64.0165C71.0491 56.9839 75 47.4456 75 37.5C75 27.5544 71.0491 18.0161 64.0165 10.9835C56.9839 3.95088 47.4456 0 37.5 0C27.5544 0 18.0161 3.95088 10.9835 10.9835C3.95088 18.0161 0 27.5544 0 37.5C0 47.4456 3.95088 56.9839 10.9835 64.0165C18.0161 71.0491 27.5544 75 37.5 75ZM25.6348 25.6348C27.0117 24.2578 29.2383 24.2578 30.6006 25.6348L37.4854 32.5195L44.3701 25.6348C45.7471 24.2578 47.9736 24.2578 49.3359 25.6348C50.6982 27.0117 50.7129 29.2383 49.3359 30.6006L42.4512 37.4854L49.3359 44.3701C50.7129 45.7471 50.7129 47.9736 49.3359 49.3359C47.959 50.6982 45.7324 50.7129 44.3701 49.3359L37.4854 42.4512L30.6006 49.3359C29.2236 50.7129 26.9971 50.7129 25.6348 49.3359C24.2725 47.959 24.2578 45.7324 25.6348 44.3701L32.5195 37.4854L25.6348 30.6006C24.2578 29.2236 24.2578 26.9971 25.6348 25.6348Z" fill="black"/>
</svg>
