<svg width="9" height="13" viewBox="0 0 9 13" fill="none" xmlns="http://www.w3.org/2000/svg">
<path d="M4.68045e-06 7.66968C4.68045e-06 10.1541 2.01563 12.5447 4.5 12.5447C6.98438 12.5447 9 10.1541 9 7.66968L7.20001 6.91968L6 7.51968L4.5 6.91968L3 7.51968L1.8 6.91968L4.68045e-06 7.66968Z" fill="#F2771B"/>
<path d="M7.44486 3.7527C8.00459 4.69725 8.34394 5.8485 8.45738 6.90192L7.39231 6.45814L7.18108 6.37012L6.9764 6.47246L5.97723 6.97205L4.6857 6.45544L4.5 6.38116L4.31431 6.45544L3.02278 6.97205L2.02361 6.47246L1.81893 6.37012L1.6077 6.45814L0.542632 6.90192C0.656064 5.8485 0.99542 4.69725 1.55515 3.7527C2.25369 2.57392 3.24103 1.79468 4.5 1.79468C5.75898 1.79468 6.74632 2.57392 7.44486 3.7527ZM4.5 12.0447C2.44639 12.0447 0.679544 10.1308 0.512849 7.99766L1.78108 7.46923L2.7764 7.96689L2.97723 8.06731L3.1857 7.98392L4.5 7.45819L5.81431 7.98392L6.02278 8.06731L6.22361 7.96689L7.21893 7.46923L8.48716 7.99766C8.32047 10.1308 6.55362 12.0447 4.5 12.0447Z" stroke="black"/>
</svg>
