<svg width="75" height="100" viewBox="0 0 75 100" fill="none" xmlns="http://www.w3.org/2000/svg">
<g clip-path="url(#clip0_159_1007)">
<path d="M42.1289 97.5C52.1484 84.9609 75 54.5703 75 37.5C75 16.7969 58.2031 0 37.5 0C16.7969 0 0 16.7969 0 37.5C0 54.5703 22.8516 84.9609 32.8711 97.5C35.2734 100.488 39.7266 100.488 42.1289 97.5ZM37.5 25C40.8152 25 43.9946 26.317 46.3388 28.6612C48.683 31.0054 50 34.1848 50 37.5C50 40.8152 48.683 43.9946 46.3388 46.3388C43.9946 48.683 40.8152 50 37.5 50C34.1848 50 31.0054 48.683 28.6612 46.3388C26.317 43.9946 25 40.8152 25 37.5C25 34.1848 26.317 31.0054 28.6612 28.6612C31.0054 26.317 34.1848 25 37.5 25Z" fill="black"/>
</g>
<defs>
<clipPath id="clip0_159_1007">
<rect width="75" height="100" fill="white"/>
</clipPath>
</defs>
</svg>
