<svg width="75" height="57" viewBox="0 0 75 57" fill="none" xmlns="http://www.w3.org/2000/svg">
<path d="M9.375 7.40625C8.08594 7.40625 7.03125 8.46094 7.03125 9.75V12.9873L32.2998 33.7295C35.332 36.2197 39.6826 36.2197 42.7148 33.7295L67.9688 12.9873V9.75C67.9688 8.46094 66.9141 7.40625 65.625 7.40625H9.375ZM7.03125 22.084V47.25C7.03125 48.5391 8.08594 49.5938 9.375 49.5938H65.625C66.9141 49.5938 67.9688 48.5391 67.9688 47.25V22.084L47.168 39.1641C41.543 43.7783 33.4424 43.7783 27.832 39.1641L7.03125 22.084ZM0 9.75C0 4.5791 4.2041 0.375 9.375 0.375H65.625C70.7959 0.375 75 4.5791 75 9.75V47.25C75 52.4209 70.7959 56.625 65.625 56.625H9.375C4.2041 56.625 0 52.4209 0 47.25V9.75Z" fill="black"/>
</svg>
