<svg width="25" height="25" viewBox="0 0 75 57" fill="none" xmlns="http://www.w3.org/2000/svg">
<path d="M0 5.0625C0 2.46973 2.39397 0.375 5.35714 0.375H69.6429C72.606 0.375 75 2.46973 75 5.0625C75 7.65527 72.606 9.75 69.6429 9.75H5.35714C2.39397 9.75 0 7.65527 0 5.0625ZM0 28.5C0 25.9072 2.39397 23.8125 5.35714 23.8125H69.6429C72.606 23.8125 75 25.9072 75 28.5C75 31.0928 72.606 33.1875 69.6429 33.1875H5.35714C2.39397 33.1875 0 31.0928 0 28.5ZM75 51.9375C75 54.5303 72.606 56.625 69.6429 56.625H5.35714C2.39397 56.625 0 54.5303 0 51.9375C0 49.3447 2.39397 47.25 5.35714 47.25H69.6429C72.606 47.25 75 49.3447 75 51.9375Z" fill="black"/>
</svg>
