<svg width="75" height="75" viewBox="0 0 75 75" fill="none" xmlns="http://www.w3.org/2000/svg">
<path d="M17.7381 2.13449L17.739 2.13426C19.5416 1.64181 21.4184 2.50791 22.218 4.16866L22.3091 4.38728L28.1685 18.4498L28.1688 18.4506C28.8242 20.0215 28.3724 21.8329 27.0496 22.9144L19.828 28.8176L18.6171 29.8075L19.2858 31.2213C24.3616 41.952 33.0479 50.6383 43.7786 55.7141L45.1907 56.382L46.1807 55.1738L52.0987 47.9521L52.0987 47.9521L52.1057 47.9435C53.1681 46.6323 54.9881 46.1737 56.5639 46.8311L56.5648 46.8314L70.6273 52.6908L70.6315 52.6925C72.4217 53.4336 73.3775 55.3874 72.8656 57.2609L72.8654 57.2617L69.3513 70.1467C69.3511 70.1475 69.3509 70.1482 69.3507 70.1489C68.8843 71.8358 67.3544 72.9999 65.625 72.9999C30.4893 72.9999 2 44.5105 2 9.37488C2 7.64558 3.16391 6.11579 4.85059 5.64928C4.85144 5.64904 4.8523 5.64881 4.85315 5.64857L17.7381 2.13449Z" fill="black" stroke="black" stroke-width="4"/>
</svg>
