<svg width="75" height="66" viewBox="0 0 75 66" fill="none" xmlns="http://www.w3.org/2000/svg">
<path d="M65.625 7.40625C66.9141 7.40625 67.9688 8.46094 67.9688 9.75V56.5957L67.2363 55.6436L47.3145 29.8623C46.6553 28.998 45.6152 28.5 44.5312 28.5C43.4473 28.5 42.4219 28.998 41.748 29.8623L29.5898 45.5947L25.1221 39.3398C24.4629 38.417 23.4082 37.875 22.2656 37.875C21.123 37.875 20.0684 38.417 19.4092 39.3545L7.69043 55.7607L7.03125 56.6689V56.625V9.75C7.03125 8.46094 8.08594 7.40625 9.375 7.40625H65.625ZM9.375 0.375C4.2041 0.375 0 4.5791 0 9.75V56.625C0 61.7959 4.2041 66 9.375 66H65.625C70.7959 66 75 61.7959 75 56.625V9.75C75 4.5791 70.7959 0.375 65.625 0.375H9.375ZM21.0938 28.5C22.0171 28.5 22.9314 28.3181 23.7845 27.9648C24.6376 27.6114 25.4127 27.0935 26.0656 26.4406C26.7185 25.7877 27.2364 25.0126 27.5898 24.1595C27.9431 23.3064 28.125 22.3921 28.125 21.4688C28.125 20.5454 27.9431 19.6311 27.5898 18.778C27.2364 17.9249 26.7185 17.1498 26.0656 16.4969C25.4127 15.844 24.6376 15.3261 23.7845 14.9727C22.9314 14.6194 22.0171 14.4375 21.0938 14.4375C20.1704 14.4375 19.2561 14.6194 18.403 14.9727C17.5499 15.3261 16.7748 15.844 16.1219 16.4969C15.469 17.1498 14.9511 17.9249 14.5977 18.778C14.2444 19.6311 14.0625 20.5454 14.0625 21.4688C14.0625 22.3921 14.2444 23.3064 14.5977 24.1595C14.9511 25.0126 15.469 25.7877 16.1219 26.4406C16.7748 27.0935 17.5499 27.6114 18.403 27.9648C19.2561 28.3181 20.1704 28.5 21.0938 28.5Z" fill="black"/>
</svg>
