<svg width="75" height="76" viewBox="0 0 75 76" fill="none" xmlns="http://www.w3.org/2000/svg">
<path d="M60.9405 31.4556C60.9405 38.1796 58.7578 44.3908 55.0808 49.4301L73.6266 67.9906C75.4578 69.8217 75.4578 72.7955 73.6266 74.6266C71.7955 76.4578 68.8217 76.4578 66.9906 74.6266L48.4448 56.0662C43.4054 59.7578 37.1942 61.9258 30.4702 61.9258C13.6384 61.9258 0 48.2875 0 31.4556C0 14.6237 13.6384 0.985352 30.4702 0.985352C47.3021 0.985352 60.9405 14.6237 60.9405 31.4556ZM30.4702 52.5504C33.2404 52.5504 35.9835 52.0047 38.5429 50.9446C41.1022 49.8845 43.4277 48.3307 45.3865 46.3718C47.3453 44.413 48.8992 42.0875 49.9593 39.5282C51.0194 36.9689 51.565 34.2258 51.565 31.4556C51.565 28.6854 51.0194 25.9423 49.9593 23.383C48.8992 20.8236 47.3453 18.4982 45.3865 16.5393C43.4277 14.5805 41.1022 13.0267 38.5429 11.9666C35.9835 10.9064 33.2404 10.3608 30.4702 10.3608C27.7 10.3608 24.957 10.9064 22.3976 11.9666C19.8383 13.0267 17.5128 14.5805 15.554 16.5393C13.5951 18.4982 12.0413 20.8236 10.9812 23.383C9.92109 25.9423 9.37546 28.6854 9.37546 31.4556C9.37546 34.2258 9.92109 36.9689 10.9812 39.5282C12.0413 42.0875 13.5951 44.413 15.554 46.3718C17.5128 48.3307 19.8383 49.8845 22.3976 50.9446C24.957 52.0047 27.7 52.5504 30.4702 52.5504Z" fill="black"/>
</svg>
