<svg width="74" height="59" viewBox="0 0 74 59" fill="none" xmlns="http://www.w3.org/2000/svg">
<path d="M18.7395 57.4792C17.9452 58.3385 16.8385 58.8333 15.6666 58.8333C14.4947 58.8333 13.3879 58.3385 12.5937 57.4792L1.13534 44.9792C-0.414142 43.2865 -0.309975 40.6432 1.39575 39.0937C3.10148 37.5443 5.73169 37.6484 7.28117 39.3542L11.4999 43.9505V4.66667C11.4999 2.36198 13.3619 0.5 15.6666 0.5C17.9713 0.5 19.8333 2.36198 19.8333 4.66667V43.9505L24.052 39.3411C25.6015 37.6484 28.2447 37.5312 29.9374 39.0807C31.6301 40.6302 31.7473 43.2734 30.1978 44.9661L18.7395 57.4661V57.4792ZM40.6666 58.8333C38.3619 58.8333 36.4999 56.9714 36.4999 54.6667C36.4999 52.362 38.3619 50.5 40.6666 50.5H44.8333C47.1379 50.5 48.9999 52.362 48.9999 54.6667C48.9999 56.9714 47.1379 58.8333 44.8333 58.8333H40.6666ZM40.6666 42.1667C38.3619 42.1667 36.4999 40.3047 36.4999 38C36.4999 35.6953 38.3619 33.8333 40.6666 33.8333H53.1666C55.4713 33.8333 57.3333 35.6953 57.3333 38C57.3333 40.3047 55.4713 42.1667 53.1666 42.1667H40.6666ZM40.6666 25.5C38.3619 25.5 36.4999 23.638 36.4999 21.3333C36.4999 19.0286 38.3619 17.1667 40.6666 17.1667H61.4999C63.8046 17.1667 65.6666 19.0286 65.6666 21.3333C65.6666 23.638 63.8046 25.5 61.4999 25.5H40.6666ZM40.6666 8.83333C38.3619 8.83333 36.4999 6.97135 36.4999 4.66667C36.4999 2.36198 38.3619 0.5 40.6666 0.5H69.8333C72.1379 0.5 73.9999 2.36198 73.9999 4.66667C73.9999 6.97135 72.1379 8.83333 69.8333 8.83333H40.6666Z" fill="black"/>
</svg>
