<svg width="75" height="67" viewBox="0 0 75 67" fill="none" xmlns="http://www.w3.org/2000/svg">
<path d="M47.4316 0.846675C41.8359 -0.750005 35.9912 2.4873 34.3945 8.083L33.5596 11.0127C33.0176 12.917 32.0361 14.6748 30.7031 16.1396L23.1885 24.4014C21.8848 25.8369 21.9873 28.0635 23.4229 29.3672C24.8584 30.6709 27.085 30.5684 28.3887 29.1328L35.9033 20.8711C37.9688 18.6006 39.4775 15.8906 40.3125 12.9463L41.1475 10.0166C41.6748 8.15625 43.623 7.07226 45.498 7.59961C47.373 8.12695 48.4424 10.0752 47.915 11.9502L47.0801 14.8799C46.2451 17.7949 44.9268 20.5488 43.1836 23.0098C42.4219 24.0791 42.334 25.4853 42.9346 26.6572C43.5352 27.8291 44.7363 28.5615 46.0547 28.5615H65.625C66.9141 28.5615 67.9688 29.6162 67.9688 30.9053C67.9688 31.9014 67.3389 32.7656 66.4453 33.1025C65.3613 33.5127 64.541 34.4209 64.2627 35.5488C63.9844 36.6768 64.2773 37.8633 65.0391 38.7275C65.4053 39.1377 65.625 39.6797 65.625 40.2803C65.625 41.4228 64.8047 42.375 63.7207 42.5801C62.5195 42.8145 61.5088 43.6494 61.084 44.8066C60.6592 45.9639 60.8496 47.2529 61.6113 48.2197C61.9189 48.6152 62.1094 49.1133 62.1094 49.6699C62.1094 50.6514 61.4941 51.5156 60.6152 51.8525C58.9307 52.5117 58.0225 54.3281 58.5059 56.0713C58.5645 56.2617 58.5938 56.4814 58.5938 56.7012C58.5938 57.9902 57.5391 59.0449 56.25 59.0449H41.9678C40.1221 59.0449 38.3057 58.5029 36.7676 57.4775L27.7295 51.457C26.1182 50.373 23.9355 50.8125 22.8516 52.4385C21.7676 54.0645 22.207 56.2324 23.833 57.3164L32.8711 63.3369C35.5664 65.1387 38.7305 66.0908 41.9678 66.0908H56.25C61.333 66.0908 65.4639 62.0479 65.625 57.0088C67.7637 55.2949 69.1406 52.6582 69.1406 49.6846C69.1406 49.0254 69.0674 48.3955 68.9502 47.7803C71.2061 46.0664 72.6562 43.3564 72.6562 40.3096C72.6562 39.3574 72.5098 38.4346 72.2461 37.5703C73.9453 35.8418 75 33.498 75 30.9053C75 25.7344 70.8105 21.5303 65.625 21.5303H52.1045C52.793 20.0068 53.3789 18.4248 53.833 16.8135L54.668 13.8838C56.2646 8.28808 53.0273 2.44336 47.4316 0.846675ZM4.6875 23.874C2.09473 23.874 0 25.9687 0 28.5615V61.374C0 63.9668 2.09473 66.0615 4.6875 66.0615H14.0625C16.6553 66.0615 18.75 63.9668 18.75 61.374V28.5615C18.75 25.9687 16.6553 23.874 14.0625 23.874H4.6875Z" fill="black"/>
</svg>
