<svg width="75" height="66" viewBox="0 0 75 66" fill="none" xmlns="http://www.w3.org/2000/svg">
<path d="M47.4316 65.3069C41.8359 66.9036 35.9912 63.6663 34.3945 58.0706L33.5596 55.1409C33.0176 53.2366 32.0361 51.4788 30.7031 50.0139L23.1885 41.7522C21.8848 40.3167 21.9873 38.0901 23.4229 36.7864C24.8584 35.4827 27.085 35.5852 28.3887 37.0208L35.9033 45.2825C37.9688 47.553 39.4775 50.2629 40.3125 53.2073L41.1475 56.137C41.6748 57.9973 43.623 59.0813 45.498 58.554C47.373 58.0266 48.4424 56.0784 47.915 54.2034L47.0801 51.2737C46.2451 48.3586 44.9268 45.6047 43.1836 43.1438C42.4219 42.0745 42.334 40.6682 42.9346 39.4963C43.5352 38.3245 44.7363 37.592 46.0547 37.592H65.625C66.9141 37.592 67.9688 36.5374 67.9688 35.2483C67.9688 34.2522 67.3389 33.3879 66.4453 33.051C65.3613 32.6409 64.541 31.7327 64.2627 30.6047C63.9844 29.4768 64.2773 28.2903 65.0391 27.426C65.4053 27.0159 65.625 26.4739 65.625 25.8733C65.625 24.7307 64.8047 23.7786 63.7207 23.5735C62.5195 23.3391 61.5088 22.5042 61.084 21.3469C60.6592 20.1897 60.8496 18.9006 61.6113 17.9338C61.9189 17.5383 62.1094 17.0403 62.1094 16.4836C62.1094 15.5022 61.4941 14.6379 60.6152 14.301C58.9307 13.6418 58.0225 11.8254 58.5059 10.0823C58.5645 9.89184 58.5938 9.67212 58.5938 9.45239C58.5938 8.16333 57.5391 7.10864 56.25 7.10864H41.9678C40.1221 7.10864 38.3057 7.65063 36.7676 8.67603L27.7295 14.6965C26.1182 15.7805 23.9355 15.3411 22.8516 13.7151C21.7676 12.0891 22.207 9.92114 23.833 8.83716L32.8711 2.81665C35.5664 1.01489 38.7305 0.0627441 41.9678 0.0627441L56.25 0.0920411C61.333 0.0920411 65.4639 4.13501 65.625 9.17407C67.7637 10.8879 69.1406 13.5247 69.1406 16.4983C69.1406 17.1575 69.0674 17.7874 68.9502 18.4026C71.2061 20.1165 72.6562 22.8264 72.6562 25.8733C72.6562 26.8254 72.5098 27.7483 72.2461 28.6125C73.9453 30.3118 75 32.6555 75 35.2483C75 40.4192 70.8105 44.6233 65.625 44.6233H52.1045C52.793 46.1467 53.3789 47.7288 53.833 49.3401L54.668 52.2698C56.2646 57.8655 53.0273 63.7102 47.4316 65.3069ZM4.6875 51.6545C2.09473 51.6545 0 49.5598 0 46.967V14.1545C0 11.5618 2.09473 9.46704 4.6875 9.46704H14.0625C16.6553 9.46704 18.75 11.5618 18.75 14.1545V46.967C18.75 49.5598 16.6553 51.6545 14.0625 51.6545H4.6875Z" fill="black"/>
</svg>
