<svg width="75" height="86" viewBox="0 0 75 86" fill="none" xmlns="http://www.w3.org/2000/svg">
<path d="M24.4203 3.86259L24.4203 3.86261L24.4261 3.85101C24.9891 2.71442 26.1486 2 27.4219 2H47.5781C48.8514 2 50.0109 2.71442 50.5739 3.85101L50.5739 3.85103L50.5797 3.86259L51.7851 6.25656L52.3392 7.35714H53.5714H69.6429C71.5015 7.35714 73 8.85569 73 10.7143C73 12.5729 71.5015 14.0714 69.6429 14.0714H5.35714C3.49854 14.0714 2 12.5729 2 10.7143C2 8.85569 3.49854 7.35714 5.35714 7.35714H21.4286H22.6608L23.2149 6.25656L24.4203 3.86259ZM10.9023 78.0546L7.48612 23.4286H67.5139L64.0977 78.0546C63.8965 81.2372 61.2542 83.7143 58.0748 83.7143H16.9252C13.7458 83.7143 11.1035 81.2372 10.9023 78.0546Z" fill="black" stroke="black" stroke-width="4"/>
</svg>
